<?xml version="1.0" encoding="utf-8"?>
<!-- Created with "sPlan" (http://www.abacom-online.de) -->
<svg version="1.1" baseProfile="full"
xmlns="http://www.w3.org/2000/svg"
width="600" height="425">
<title>Circ3</title>
<defs>
<style type="text/css">
<![CDATA[
polyline {stroke-linecap:round; stroke-linejoin:round}
polygon {stroke-linecap:round; stroke-linejoin:round}
path {stroke-linecap:round; stroke-linejoin:round}
circle {stroke-linecap:round; stroke-linejoin:round}
]]>
</style>
</defs>
<path fill="rgb(255,255,255)" stroke="rgb(0,0,0)" stroke-width="2" style="stroke-linecap:square; stroke-linejoin:miter" d=" M 177 235 L 227 235 227 255 177 255 177 235" />
<polyline points="157.00 245.00 177.00 245.00" fill="none" stroke="rgb(0,0,0)" stroke-width="2" />
<polyline points="227.00 245.00 247.00 245.00" fill="none" stroke="rgb(0,0,0)" stroke-width="2" />
<text x="185.00" y="229.00" font-family ="Arial" font-size ="17pt" font-weight="normal" font-style="italic" fill="rgb(0,0,0)" transform=" rotate(0.000) scale(1.000,1.000)">R3</text>
<path fill="rgb(255,255,255)" stroke="rgb(0,0,0)" stroke-width="2" style="stroke-linecap:square; stroke-linejoin:miter" d=" M 337 65 L 387 65 387 85 337 85 337 65" />
<polyline points="317.00 75.00 337.00 75.00" fill="none" stroke="rgb(0,0,0)" stroke-width="2" />
<polyline points="387.00 75.00 407.00 75.00" fill="none" stroke="rgb(0,0,0)" stroke-width="2" />
<text x="345.00" y="59.00" font-family ="Arial" font-size ="17pt" font-weight="normal" font-style="italic" fill="rgb(0,0,0)" transform=" rotate(0.000) scale(1.000,1.000)">R2</text>
<circle cx="48.50" cy="289.50" r="7.50" fill="none" stroke="rgb(0,0,0)" stroke-width="2" />
<polyline points="49.00 297.00 49.00 327.00" fill="none" stroke="rgb(0,0,0)" stroke-width="2" />
<text x="41.00" y="276.00" font-family ="ARIAL" font-size ="17pt" font-weight="normal" font-style="normal" fill="rgb(0,0,0)" transform=" rotate(0.000) scale(1.000,1.000)">Ес</text>
<polyline points="49.00 327.00 49.00 297.00" fill="none" stroke="rgb(0,0,0)" stroke-width="2" />
<polyline points="40.00 327.00 58.00 327.00" fill="none" stroke="rgb(0,0,0)" stroke-width="2" />
<circle cx="49.50" cy="244.50" r="7.50" fill="none" stroke="rgb(0,0,0)" stroke-width="2" />
<polyline points="57.00 245.00 87.00 245.00" fill="none" stroke="rgb(0,0,0)" stroke-width="2" />
<circle cx="484.50" cy="215.50" r="7.50" fill="none" stroke="rgb(0,0,0)" stroke-width="2" />
<polyline points="477.00 215.00 447.00 215.00" fill="none" stroke="rgb(0,0,0)" stroke-width="2" />
<path fill="rgb(255,255,255)" stroke="rgb(0,0,0)" stroke-width="2" style="stroke-linecap:square; stroke-linejoin:miter" d=" M 317 115 L 407 115 407 265 317 265 317 115" />
<polyline points="337.00 185.00 327.00 185.00" fill="none" stroke="rgb(0,0,0)" stroke-width="2" />
<polyline points="332.00 240.00 332.00 250.00" fill="none" stroke="rgb(0,0,0)" stroke-width="2" />
<polyline points="337.00 245.00 327.00 245.00" fill="none" stroke="rgb(0,0,0)" stroke-width="2" />
<polyline points="392.00 210.00 392.00 220.00" fill="none" stroke="rgb(0,0,0)" stroke-width="2" />
<polyline points="397.00 215.00 387.00 215.00" fill="none" stroke="rgb(0,0,0)" stroke-width="2" />
<polygon points="327 125 327 155 357 140" fill="none" stroke="rgb(0,0,0)" stroke-width="2" />
<circle cx="374.50" cy="137.50" r="7.50" fill="none" stroke="rgb(0,0,0)" stroke-width="2" />
<circle cx="389.50" cy="137.50" r="7.50" fill="none" stroke="rgb(0,0,0)" stroke-width="2" />
<polyline points="317.00 185.00 277.00 185.00" fill="none" stroke="rgb(0,0,0)" stroke-width="2" />
<polyline points="317.00 245.00 277.00 245.00" fill="none" stroke="rgb(0,0,0)" stroke-width="2" />
<polyline points="407.00 215.00 447.00 215.00" fill="none" stroke="rgb(0,0,0)" stroke-width="2" />
<polyline points="257.00 385.00 257.00 355.00" fill="none" stroke="rgb(0,0,0)" stroke-width="2" />
<polyline points="248.00 385.00 266.00 385.00" fill="none" stroke="rgb(0,0,0)" stroke-width="2" />
<polyline points="257.00 185.00 257.00 75.00 297.00 75.00" fill="none" stroke="rgb(0,0,0)" stroke-width="2" />
<polyline points="407.00 75.00 437.00 75.00 437.00 215.00" fill="none" stroke="rgb(0,0,0)" stroke-width="2" />
<circle cx="484.50" cy="247.50" r="7.50" fill="none" stroke="rgb(0,0,0)" stroke-width="2" />
<polyline points="485.00 255.00 485.00 285.00" fill="none" stroke="rgb(0,0,0)" stroke-width="2" />
<text x="507.00" y="234.00" font-family ="ARIAL" font-size ="17pt" font-weight="normal" font-style="normal" fill="rgb(0,0,0)" transform=" rotate(0.000) scale(1.000,1.000)">Uвых</text>
<polyline points="485.00 285.00 485.00 255.00" fill="none" stroke="rgb(0,0,0)" stroke-width="2" />
<polyline points="476.00 285.00 494.00 285.00" fill="none" stroke="rgb(0,0,0)" stroke-width="2" />
<polyline points="247.00 245.00 277.00 245.00" fill="none" stroke="rgb(0,0,0)" stroke-width="2" />
<path fill="rgb(255,255,255)" stroke="rgb(0,0,0)" stroke-width="2" style="stroke-linecap:square; stroke-linejoin:miter" d=" M 247 285 L 267 285 267 335 247 335 247 285" />
<polyline points="257.00 265.00 257.00 285.00" fill="none" stroke="rgb(0,0,0)" stroke-width="2" />
<polyline points="257.00 335.00 257.00 355.00" fill="none" stroke="rgb(0,0,0)" stroke-width="2" />
<text x="207.00" y="304.00" font-family ="Arial" font-size ="17pt" font-weight="normal" font-style="italic" fill="rgb(0,0,0)" transform=" rotate(0.000) scale(1.000,1.000)">R1</text>
<path fill="rgb(255,255,255)" stroke="rgb(0,0,0)" stroke-width="2" style="stroke-linecap:square; stroke-linejoin:miter" d=" M 287 285 L 307 285 307 335 287 335 287 285" />
<polyline points="297.00 265.00 297.00 285.00" fill="none" stroke="rgb(0,0,0)" stroke-width="2" />
<polyline points="297.00 335.00 297.00 355.00" fill="none" stroke="rgb(0,0,0)" stroke-width="2" />
<text x="310.00" y="310.00" font-family ="Arial" font-size ="17pt" font-weight="normal" font-style="italic" fill="rgb(0,0,0)" transform=" rotate(0.000) scale(1.000,1.000)">R4</text>
<polyline points="257.00 185.00 257.00 265.00" fill="none" stroke="rgb(0,0,0)" stroke-width="2" />
<polyline points="297.00 75.00 317.00 75.00" fill="none" stroke="rgb(0,0,0)" stroke-width="2" />
<polyline points="277.00 185.00 257.00 185.00" fill="none" stroke="rgb(0,0,0)" stroke-width="2" />
<polyline points="297.00 385.00 297.00 355.00" fill="none" stroke="rgb(0,0,0)" stroke-width="2" />
<polyline points="288.00 385.00 306.00 385.00" fill="none" stroke="rgb(0,0,0)" stroke-width="2" />
<polyline points="297.00 245.00 297.00 265.00" fill="none" stroke="rgb(0,0,0)" stroke-width="2" />
<circle cx="297" cy="245" r="6" fill="rgb(0,0,0)" stroke="none" stroke-width="2" />
<circle cx="257" cy="185" r="6" fill="rgb(0,0,0)" stroke="none" stroke-width="2" />
<path fill="rgb(0,0,0)" stroke="rgb(0,0,0)" stroke-width="2" style="stroke-linecap:square; stroke-linejoin:miter" d=" M 117 225 L 117 225 117 265 117 265 117 225" />
<polyline points="127.00 245.00 157.00 245.00" fill="none" stroke="rgb(0,0,0)" stroke-width="2" />
<path fill="rgb(0,0,0)" stroke="rgb(0,0,0)" stroke-width="2" style="stroke-linecap:square; stroke-linejoin:miter" d=" M 127 225 L 127 225 127 265 127 265 127 225" />
<polyline points="87.00 245.00 117.00 245.00" fill="none" stroke="rgb(0,0,0)" stroke-width="2" />
<text x="107.00" y="219.00" font-family ="Arial" font-size ="17pt" font-weight="normal" font-style="italic" fill="rgb(0,0,0)" transform=" rotate(0.000) scale(1.000,1.000)">Cр</text>
</svg>
