<?xml version="1.0" encoding="utf-8"?>
<!-- Created with "sPlan" (http://www.abacom-online.de) -->
<svg version="1.1" baseProfile="full"
xmlns="http://www.w3.org/2000/svg"
width="530" height="425">
<title>Circ2</title>
<defs>
<style type="text/css">
<![CDATA[
polyline {stroke-linecap:round; stroke-linejoin:round}
polygon {stroke-linecap:round; stroke-linejoin:round}
path {stroke-linecap:round; stroke-linejoin:round}
circle {stroke-linecap:round; stroke-linejoin:round}
]]>
</style>
</defs>
<path fill="rgb(255,255,255)" stroke="rgb(0,0,0)" stroke-width="2" style="stroke-linecap:square; stroke-linejoin:miter" d=" M 107 235 L 157 235 157 255 107 255 107 235" />
<polyline points="87.00 245.00 107.00 245.00" fill="none" stroke="rgb(0,0,0)" stroke-width="2" />
<polyline points="157.00 245.00 177.00 245.00" fill="none" stroke="rgb(0,0,0)" stroke-width="2" />
<text x="115.00" y="229.00" font-family ="Arial" font-size ="17pt" font-weight="normal" font-style="italic" fill="rgb(0,0,0)" transform=" rotate(0.000) scale(1.000,1.000)">R3</text>
<path fill="rgb(255,255,255)" stroke="rgb(0,0,0)" stroke-width="2" style="stroke-linecap:square; stroke-linejoin:miter" d=" M 267 65 L 317 65 317 85 267 85 267 65" />
<polyline points="247.00 75.00 267.00 75.00" fill="none" stroke="rgb(0,0,0)" stroke-width="2" />
<polyline points="317.00 75.00 337.00 75.00" fill="none" stroke="rgb(0,0,0)" stroke-width="2" />
<text x="275.00" y="59.00" font-family ="Arial" font-size ="17pt" font-weight="normal" font-style="italic" fill="rgb(0,0,0)" transform=" rotate(0.000) scale(1.000,1.000)">R2</text>
<circle cx="48.50" cy="292.50" r="7.50" fill="none" stroke="rgb(0,0,0)" stroke-width="2" />
<polyline points="49.00 300.00 49.00 330.00" fill="none" stroke="rgb(0,0,0)" stroke-width="2" />
<text x="41.00" y="279.00" font-family ="ARIAL" font-size ="17pt" font-weight="normal" font-style="normal" fill="rgb(0,0,0)" transform=" rotate(0.000) scale(1.000,1.000)">Ес</text>
<polyline points="49.00 330.00 49.00 300.00" fill="none" stroke="rgb(0,0,0)" stroke-width="2" />
<polyline points="40.00 330.00 58.00 330.00" fill="none" stroke="rgb(0,0,0)" stroke-width="2" />
<circle cx="49.50" cy="244.50" r="7.50" fill="none" stroke="rgb(0,0,0)" stroke-width="2" />
<polyline points="57.00 245.00 87.00 245.00" fill="none" stroke="rgb(0,0,0)" stroke-width="2" />
<circle cx="414.50" cy="215.50" r="7.50" fill="none" stroke="rgb(0,0,0)" stroke-width="2" />
<polyline points="407.00 215.00 377.00 215.00" fill="none" stroke="rgb(0,0,0)" stroke-width="2" />
<path fill="rgb(255,255,255)" stroke="rgb(0,0,0)" stroke-width="2" style="stroke-linecap:square; stroke-linejoin:miter" d=" M 247 115 L 337 115 337 265 247 265 247 115" />
<polyline points="267.00 185.00 257.00 185.00" fill="none" stroke="rgb(0,0,0)" stroke-width="2" />
<polyline points="262.00 240.00 262.00 250.00" fill="none" stroke="rgb(0,0,0)" stroke-width="2" />
<polyline points="267.00 245.00 257.00 245.00" fill="none" stroke="rgb(0,0,0)" stroke-width="2" />
<polyline points="322.00 210.00 322.00 220.00" fill="none" stroke="rgb(0,0,0)" stroke-width="2" />
<polyline points="327.00 215.00 317.00 215.00" fill="none" stroke="rgb(0,0,0)" stroke-width="2" />
<polygon points="257 125 257 155 287 140" fill="none" stroke="rgb(0,0,0)" stroke-width="2" />
<circle cx="304.50" cy="137.50" r="7.50" fill="none" stroke="rgb(0,0,0)" stroke-width="2" />
<circle cx="319.50" cy="137.50" r="7.50" fill="none" stroke="rgb(0,0,0)" stroke-width="2" />
<polyline points="247.00 185.00 207.00 185.00" fill="none" stroke="rgb(0,0,0)" stroke-width="2" />
<polyline points="247.00 245.00 207.00 245.00" fill="none" stroke="rgb(0,0,0)" stroke-width="2" />
<polyline points="337.00 215.00 377.00 215.00" fill="none" stroke="rgb(0,0,0)" stroke-width="2" />
<polyline points="187.00 385.00 187.00 355.00" fill="none" stroke="rgb(0,0,0)" stroke-width="2" />
<polyline points="178.00 385.00 196.00 385.00" fill="none" stroke="rgb(0,0,0)" stroke-width="2" />
<polyline points="187.00 185.00 187.00 75.00 227.00 75.00" fill="none" stroke="rgb(0,0,0)" stroke-width="2" />
<polyline points="337.00 75.00 367.00 75.00 367.00 215.00" fill="none" stroke="rgb(0,0,0)" stroke-width="2" />
<circle cx="414.50" cy="247.50" r="7.50" fill="none" stroke="rgb(0,0,0)" stroke-width="2" />
<polyline points="415.00 255.00 415.00 285.00" fill="none" stroke="rgb(0,0,0)" stroke-width="2" />
<text x="437.00" y="234.00" font-family ="ARIAL" font-size ="17pt" font-weight="normal" font-style="normal" fill="rgb(0,0,0)" transform=" rotate(0.000) scale(1.000,1.000)">Uвых</text>
<polyline points="415.00 285.00 415.00 255.00" fill="none" stroke="rgb(0,0,0)" stroke-width="2" />
<polyline points="406.00 285.00 424.00 285.00" fill="none" stroke="rgb(0,0,0)" stroke-width="2" />
<polyline points="177.00 245.00 207.00 245.00" fill="none" stroke="rgb(0,0,0)" stroke-width="2" />
<path fill="rgb(255,255,255)" stroke="rgb(0,0,0)" stroke-width="2" style="stroke-linecap:square; stroke-linejoin:miter" d=" M 177 285 L 197 285 197 335 177 335 177 285" />
<polyline points="187.00 265.00 187.00 285.00" fill="none" stroke="rgb(0,0,0)" stroke-width="2" />
<polyline points="187.00 335.00 187.00 355.00" fill="none" stroke="rgb(0,0,0)" stroke-width="2" />
<text x="137.00" y="304.00" font-family ="Arial" font-size ="17pt" font-weight="normal" font-style="italic" fill="rgb(0,0,0)" transform=" rotate(0.000) scale(1.000,1.000)">R1</text>
<path fill="rgb(255,255,255)" stroke="rgb(0,0,0)" stroke-width="2" style="stroke-linecap:square; stroke-linejoin:miter" d=" M 217 285 L 237 285 237 335 217 335 217 285" />
<polyline points="227.00 265.00 227.00 285.00" fill="none" stroke="rgb(0,0,0)" stroke-width="2" />
<polyline points="227.00 335.00 227.00 355.00" fill="none" stroke="rgb(0,0,0)" stroke-width="2" />
<text x="240.00" y="310.00" font-family ="Arial" font-size ="17pt" font-weight="normal" font-style="italic" fill="rgb(0,0,0)" transform=" rotate(0.000) scale(1.000,1.000)">R4</text>
<polyline points="187.00 185.00 187.00 265.00" fill="none" stroke="rgb(0,0,0)" stroke-width="2" />
<polyline points="227.00 75.00 247.00 75.00" fill="none" stroke="rgb(0,0,0)" stroke-width="2" />
<polyline points="207.00 185.00 187.00 185.00" fill="none" stroke="rgb(0,0,0)" stroke-width="2" />
<polyline points="227.00 385.00 227.00 355.00" fill="none" stroke="rgb(0,0,0)" stroke-width="2" />
<polyline points="218.00 385.00 236.00 385.00" fill="none" stroke="rgb(0,0,0)" stroke-width="2" />
<polyline points="227.00 245.00 227.00 265.00" fill="none" stroke="rgb(0,0,0)" stroke-width="2" />
<circle cx="227" cy="245" r="6" fill="rgb(0,0,0)" stroke="none" stroke-width="2" />
<circle cx="187" cy="185" r="6" fill="rgb(0,0,0)" stroke="none" stroke-width="2" />
</svg>
