<?xml version="1.0" encoding="utf-8"?>
<!-- Created with "sPlan" (http://www.abacom-online.de) -->
<svg version="1.1" baseProfile="full"
xmlns="http://www.w3.org/2000/svg"
width="537" height="454">
<title>Лаб5</title>
<defs>
<style type="text/css">
<![CDATA[
polyline {stroke-linecap:round; stroke-linejoin:round}
polygon {stroke-linecap:round; stroke-linejoin:round}
path {stroke-linecap:round; stroke-linejoin:round}
circle {stroke-linecap:round; stroke-linejoin:round}
]]>
</style>
</defs>
<path fill="rgb(255,255,255)" stroke="rgb(0,0,0)" stroke-width="2" style="stroke-linecap:square; stroke-linejoin:miter" d=" M 170 184 L 190 184 190 234 170 234 170 184" />
<polyline points="180.00 164.00 180.00 184.00" fill="none" stroke="rgb(0,0,0)" stroke-width="2" />
<polyline points="180.00 234.00 180.00 254.00" fill="none" stroke="rgb(0,0,0)" stroke-width="2" />
<text x="130.00" y="203.00" font-family ="Arial" font-size ="17pt" font-weight="normal" font-style="italic" fill="rgb(0,0,0)" transform=" rotate(0.000) scale(1.000,1.000)">R1</text>
<path fill="rgb(255,255,255)" stroke="rgb(0,0,0)" stroke-width="2" style="stroke-linecap:square; stroke-linejoin:miter" d=" M 440 244 L 460 244 460 294 440 294 440 244" />
<polyline points="450.00 224.00 450.00 244.00" fill="none" stroke="rgb(0,0,0)" stroke-width="2" />
<polyline points="450.00 294.00 450.00 314.00" fill="none" stroke="rgb(0,0,0)" stroke-width="2" />
<text x="470.00" y="303.00" font-family ="Arial" font-size ="17pt" font-weight="normal" font-style="italic" fill="rgb(0,0,0)" transform=" rotate(0.000) scale(1.000,1.000)">Rн</text>
<path fill="rgb(255,255,255)" stroke="rgb(0,0,0)" stroke-width="2" style="stroke-linecap:square; stroke-linejoin:miter" d=" M 300 134 L 320 134 320 184 300 184 300 134" />
<polyline points="310.00 114.00 310.00 134.00" fill="none" stroke="rgb(0,0,0)" stroke-width="2" />
<polyline points="310.00 184.00 310.00 204.00" fill="none" stroke="rgb(0,0,0)" stroke-width="2" />
<text x="323.00" y="159.00" font-family ="Arial" font-size ="17pt" font-weight="normal" font-style="italic" fill="rgb(0,0,0)" transform=" rotate(0.000) scale(1.000,1.000)">Rк</text>
<path fill="rgb(0,0,0)" stroke="rgb(0,0,0)" stroke-width="2" style="stroke-linecap:square; stroke-linejoin:miter" d=" M 110 274 L 110 274 110 314 110 314 110 274" />
<polyline points="120.00 294.00 150.00 294.00" fill="none" stroke="rgb(0,0,0)" stroke-width="2" />
<path fill="rgb(0,0,0)" stroke="rgb(0,0,0)" stroke-width="2" style="stroke-linecap:square; stroke-linejoin:miter" d=" M 120 274 L 120 274 120 314 120 314 120 274" />
<polyline points="80.00 294.00 110.00 294.00" fill="none" stroke="rgb(0,0,0)" stroke-width="2" />
<text x="100.00" y="268.00" font-family ="Arial" font-size ="17pt" font-weight="normal" font-style="italic" fill="rgb(0,0,0)" transform=" rotate(0.000) scale(1.000,1.000)">Cр1</text>
<path fill="rgb(0,0,0)" stroke="rgb(0,0,0)" stroke-width="2" style="stroke-linecap:square; stroke-linejoin:miter" d=" M 390 204 L 390 204 390 244 390 244 390 204" />
<polyline points="400.00 224.00 430.00 224.00" fill="none" stroke="rgb(0,0,0)" stroke-width="2" />
<path fill="rgb(0,0,0)" stroke="rgb(0,0,0)" stroke-width="2" style="stroke-linecap:square; stroke-linejoin:miter" d=" M 400 204 L 400 204 400 244 400 244 400 204" />
<polyline points="360.00 224.00 390.00 224.00" fill="none" stroke="rgb(0,0,0)" stroke-width="2" />
<text x="380.00" y="183.00" font-family ="Arial" font-size ="17pt" font-weight="normal" font-style="italic" fill="rgb(0,0,0)" transform=" rotate(0.000) scale(1.000,1.000)">Cр2</text>
<polyline points="310.00 384.00 310.00 414.00" fill="none" stroke="rgb(0,0,0)" stroke-width="2" />
<polyline points="290.00 414.00 330.00 414.00" fill="none" stroke="rgb(0,0,0)" stroke-width="4" />
<polyline points="190.00 294.00 150.00 294.00" fill="none" stroke="rgb(0,0,0)" stroke-width="2" />
<polyline points="180.00 254.00 180.00 294.00" fill="none" stroke="rgb(0,0,0)" stroke-width="2" />
<path fill="rgb(0,0,0)" stroke="rgb(0,0,0)" stroke-width="2" style="stroke-linecap:square; stroke-linejoin:miter" d=" M 250 264 L 256 264 256 321 250 321 250 264" />
<polyline points="250.00 294.00 190.00 294.00" fill="none" stroke="rgb(0,0,0)" stroke-width="2" />
<polyline points="250.00 284.00 310.00 244.00 310.00 204.00" fill="none" stroke="rgb(0,0,0)" stroke-width="2" />
<polyline points="250.00 304.00 310.00 344.00 310.00 384.00" fill="none" stroke="rgb(0,0,0)" stroke-width="2" />
<polygon points="292 340 299 328 280 324" fill="rgb(0,0,0)" stroke="rgb(0,0,0)" stroke-width="1" />
<text x="230.00" y="243.00" font-family ="ARIAL" font-size ="17pt" font-weight="normal" font-style="normal" fill="rgb(0,0,0)" transform=" rotate(0.000) scale(1.000,1.000)">T1</text>
<text x="230.00" y="363.00" font-family ="ARIAL" font-size ="17pt" font-weight="normal" font-style="normal" fill="rgb(0,0,0)" transform=" rotate(0.000) scale(1.000,1.000)"></text>
<polyline points="310.00 224.00 360.00 224.00" fill="none" stroke="rgb(0,0,0)" stroke-width="2" />
<polyline points="430.00 224.00 450.00 224.00" fill="none" stroke="rgb(0,0,0)" stroke-width="2" />
<polyline points="450.00 314.00 450.00 404.00" fill="none" stroke="rgb(0,0,0)" stroke-width="2" />
<polyline points="450.00 384.00 450.00 414.00" fill="none" stroke="rgb(0,0,0)" stroke-width="2" />
<polyline points="430.00 414.00 470.00 414.00" fill="none" stroke="rgb(0,0,0)" stroke-width="4" />
<polyline points="474.00 224.00 450.00 224.00" fill="none" stroke="rgb(0,0,0)" stroke-width="2" />
<circle cx="479.00" cy="224.00" r="5.00" fill="none" stroke="rgb(0,0,0)" stroke-width="2" />
<text x="460.47" y="203.00" font-family ="ARIAL" font-size ="17pt" font-weight="normal" font-style="normal" fill="rgb(0,0,0)" transform=" rotate(0.000) scale(1.000,1.000)">uн</text>
<polyline points="310.00 114.00 180.00 114.00 180.00 164.00" fill="none" stroke="rgb(0,0,0)" stroke-width="2" />
<polyline points="310.00 90.00 310.00 114.00" fill="none" stroke="rgb(0,0,0)" stroke-width="2" />
<circle cx="310.00" cy="85.00" r="5.00" fill="none" stroke="rgb(0,0,0)" stroke-width="2" />
<text x="305.00" y="59.00" font-family ="ARIAL" font-size ="17pt" font-weight="normal" font-style="normal" fill="rgb(0,0,0)" transform=" rotate(0.000) scale(1.000,1.000)">+E0</text>
<polyline points="80.00 294.00 80.00 308.00" fill="none" stroke="rgb(0,0,0)" stroke-width="2" />
<circle cx="80.00" cy="329.00" r="21.00" fill="rgb(255,255,255)" stroke="rgb(0,0,0)" stroke-width="2" />
<polyline points="80.00 350.00 80.00 364.00" fill="none" stroke="rgb(0,0,0)" stroke-width="2" />
<polyline points="80.00 308.00 80.00 350.00" fill="none" stroke="rgb(0,0,0)" stroke-width="2" />
<polyline points="80.00 308.00 87.47 321.07" fill="none" stroke="rgb(0,0,0)" stroke-width="2" />
<polyline points="80.00 308.00 71.60 321.07" fill="none" stroke="rgb(0,0,0)" stroke-width="2" />
<text x="40.00" y="303.00" font-family ="ARIAL" font-size ="7pt" font-weight="normal" font-style="normal" fill="rgb(0,0,0)" transform=" rotate(0.000) scale(1.000,1.000)">eс</text>
<circle cx="180" cy="294" r="6" fill="rgb(0,0,0)" stroke="none" stroke-width="2" />
<circle cx="310" cy="224" r="6" fill="rgb(0,0,0)" stroke="none" stroke-width="2" />
<polyline points="80.00 384.00 80.00 414.00" fill="none" stroke="rgb(0,0,0)" stroke-width="2" />
<polyline points="60.00 414.00 100.00 414.00" fill="none" stroke="rgb(0,0,0)" stroke-width="4" />
<polyline points="80.00 364.00 80.00 384.00" fill="none" stroke="rgb(0,0,0)" stroke-width="2" />
</svg>
